<mxfile host="Electron" modified="2024-07-28T15:50:37.886Z" agent="Mozilla/5.0 (Windows NT 10.0; Win64; x64) AppleWebKit/537.36 (KHTML, like Gecko) draw.io/22.1.2 Chrome/114.0.5735.289 Electron/25.9.4 Safari/537.36" etag="b-Rc4CUOryCdS0C-Ycv8" version="22.1.2" type="device">
  <diagram name="Página-1" id="8_ZAtF2t73PWJiYJea8C">
    <mxGraphModel dx="1863" dy="614" grid="1" gridSize="10" guides="1" tooltips="1" connect="1" arrows="1" fold="1" page="1" pageScale="1" pageWidth="827" pageHeight="1169" math="0" shadow="0">
      <root>
        <mxCell id="0" />
        <mxCell id="1" parent="0" />
        <mxCell id="g1ZzgkmIgaxY1qbnCCBE-6" style="edgeStyle=orthogonalEdgeStyle;rounded=0;orthogonalLoop=1;jettySize=auto;html=1;" parent="1" source="g1ZzgkmIgaxY1qbnCCBE-3" target="g1ZzgkmIgaxY1qbnCCBE-5" edge="1">
          <mxGeometry relative="1" as="geometry" />
        </mxCell>
        <mxCell id="g1ZzgkmIgaxY1qbnCCBE-20" style="edgeStyle=orthogonalEdgeStyle;rounded=0;orthogonalLoop=1;jettySize=auto;html=1;" parent="1" source="g1ZzgkmIgaxY1qbnCCBE-3" target="g1ZzgkmIgaxY1qbnCCBE-19" edge="1">
          <mxGeometry relative="1" as="geometry" />
        </mxCell>
        <mxCell id="g1ZzgkmIgaxY1qbnCCBE-3" value="Usuario" style="rounded=0;whiteSpace=wrap;html=1;fillColor=#dae8fc;strokeColor=#6c8ebf;" parent="1" vertex="1">
          <mxGeometry x="260" y="245" width="120" height="60" as="geometry" />
        </mxCell>
        <mxCell id="g1ZzgkmIgaxY1qbnCCBE-22" style="edgeStyle=orthogonalEdgeStyle;rounded=0;orthogonalLoop=1;jettySize=auto;html=1;" parent="1" source="g1ZzgkmIgaxY1qbnCCBE-4" target="g1ZzgkmIgaxY1qbnCCBE-18" edge="1">
          <mxGeometry relative="1" as="geometry" />
        </mxCell>
        <mxCell id="g1ZzgkmIgaxY1qbnCCBE-4" value="Mensagem" style="rounded=0;whiteSpace=wrap;html=1;fillColor=#dae8fc;strokeColor=#6c8ebf;" parent="1" vertex="1">
          <mxGeometry x="-120" y="245" width="120" height="60" as="geometry" />
        </mxCell>
        <mxCell id="g1ZzgkmIgaxY1qbnCCBE-5" value="login&lt;div&gt;nome&lt;/div&gt;&lt;div&gt;imagem&lt;/div&gt;&lt;div&gt;senha&lt;/div&gt;&lt;div&gt;ativo&lt;/div&gt;" style="ellipse;whiteSpace=wrap;html=1;fillColor=#fff2cc;strokeColor=#d6b656;" parent="1" vertex="1">
          <mxGeometry x="260" y="110" width="120" height="70" as="geometry" />
        </mxCell>
        <mxCell id="g1ZzgkmIgaxY1qbnCCBE-18" value="id&lt;div&gt;id_grupo&lt;/div&gt;&lt;div&gt;usuario_remetente&lt;/div&gt;&lt;div&gt;mensagem&lt;/div&gt;&lt;div&gt;data_hora&lt;/div&gt;" style="ellipse;whiteSpace=wrap;html=1;fillColor=#fff2cc;strokeColor=#d6b656;" parent="1" vertex="1">
          <mxGeometry x="-120" y="100" width="120" height="80" as="geometry" />
        </mxCell>
        <mxCell id="g1ZzgkmIgaxY1qbnCCBE-21" style="edgeStyle=orthogonalEdgeStyle;rounded=0;orthogonalLoop=1;jettySize=auto;html=1;entryX=1;entryY=0.5;entryDx=0;entryDy=0;" parent="1" source="g1ZzgkmIgaxY1qbnCCBE-19" target="g1ZzgkmIgaxY1qbnCCBE-4" edge="1">
          <mxGeometry relative="1" as="geometry" />
        </mxCell>
        <mxCell id="g1ZzgkmIgaxY1qbnCCBE-19" value="Envia" style="rhombus;whiteSpace=wrap;html=1;fillColor=#f8cecc;strokeColor=#b85450;" parent="1" vertex="1">
          <mxGeometry x="80" y="240" width="130" height="70" as="geometry" />
        </mxCell>
        <mxCell id="g1ZzgkmIgaxY1qbnCCBE-27" style="edgeStyle=orthogonalEdgeStyle;rounded=0;orthogonalLoop=1;jettySize=auto;html=1;" parent="1" source="g1ZzgkmIgaxY1qbnCCBE-23" target="g1ZzgkmIgaxY1qbnCCBE-24" edge="1">
          <mxGeometry relative="1" as="geometry" />
        </mxCell>
        <mxCell id="g1ZzgkmIgaxY1qbnCCBE-29" style="edgeStyle=orthogonalEdgeStyle;rounded=0;orthogonalLoop=1;jettySize=auto;html=1;entryX=0.5;entryY=1;entryDx=0;entryDy=0;exitX=0;exitY=0.5;exitDx=0;exitDy=0;" parent="1" source="g1ZzgkmIgaxY1qbnCCBE-34" target="g1ZzgkmIgaxY1qbnCCBE-28" edge="1">
          <mxGeometry relative="1" as="geometry" />
        </mxCell>
        <mxCell id="g1ZzgkmIgaxY1qbnCCBE-32" style="edgeStyle=orthogonalEdgeStyle;rounded=0;orthogonalLoop=1;jettySize=auto;html=1;" parent="1" source="g1ZzgkmIgaxY1qbnCCBE-23" target="g1ZzgkmIgaxY1qbnCCBE-31" edge="1">
          <mxGeometry relative="1" as="geometry" />
        </mxCell>
        <mxCell id="g1ZzgkmIgaxY1qbnCCBE-37" style="edgeStyle=orthogonalEdgeStyle;rounded=0;orthogonalLoop=1;jettySize=auto;html=1;exitX=0.5;exitY=1;exitDx=0;exitDy=0;entryX=0;entryY=0.5;entryDx=0;entryDy=0;" parent="1" source="g1ZzgkmIgaxY1qbnCCBE-23" target="g1ZzgkmIgaxY1qbnCCBE-35" edge="1">
          <mxGeometry relative="1" as="geometry" />
        </mxCell>
        <mxCell id="g1ZzgkmIgaxY1qbnCCBE-23" value="Grupo" style="rounded=0;whiteSpace=wrap;html=1;fillColor=#dae8fc;strokeColor=#6c8ebf;" parent="1" vertex="1">
          <mxGeometry y="560" width="120" height="60" as="geometry" />
        </mxCell>
        <mxCell id="g1ZzgkmIgaxY1qbnCCBE-24" value="id&lt;div&gt;uuid&lt;/div&gt;&lt;div&gt;nome&lt;/div&gt;&lt;div&gt;&lt;br&gt;&lt;/div&gt;" style="ellipse;whiteSpace=wrap;html=1;fillColor=#fff2cc;strokeColor=#d6b656;" parent="1" vertex="1">
          <mxGeometry x="20" y="420" width="120" height="80" as="geometry" />
        </mxCell>
        <mxCell id="g1ZzgkmIgaxY1qbnCCBE-30" style="edgeStyle=orthogonalEdgeStyle;rounded=0;orthogonalLoop=1;jettySize=auto;html=1;entryX=0.5;entryY=1;entryDx=0;entryDy=0;" parent="1" source="g1ZzgkmIgaxY1qbnCCBE-28" target="g1ZzgkmIgaxY1qbnCCBE-3" edge="1">
          <mxGeometry relative="1" as="geometry" />
        </mxCell>
        <mxCell id="g1ZzgkmIgaxY1qbnCCBE-28" value="participa" style="rhombus;whiteSpace=wrap;html=1;fillColor=#f8cecc;strokeColor=#b85450;" parent="1" vertex="1">
          <mxGeometry x="280" y="380" width="120" height="80" as="geometry" />
        </mxCell>
        <mxCell id="g1ZzgkmIgaxY1qbnCCBE-33" style="edgeStyle=orthogonalEdgeStyle;rounded=0;orthogonalLoop=1;jettySize=auto;html=1;exitX=0.5;exitY=0;exitDx=0;exitDy=0;entryX=0.5;entryY=1;entryDx=0;entryDy=0;" parent="1" source="g1ZzgkmIgaxY1qbnCCBE-31" target="g1ZzgkmIgaxY1qbnCCBE-4" edge="1">
          <mxGeometry relative="1" as="geometry" />
        </mxCell>
        <mxCell id="g1ZzgkmIgaxY1qbnCCBE-31" value="recebe" style="rhombus;whiteSpace=wrap;html=1;fillColor=#f8cecc;strokeColor=#b85450;" parent="1" vertex="1">
          <mxGeometry x="-110" y="450" width="100" height="80" as="geometry" />
        </mxCell>
        <mxCell id="g1ZzgkmIgaxY1qbnCCBE-40" style="edgeStyle=orthogonalEdgeStyle;rounded=0;orthogonalLoop=1;jettySize=auto;html=1;exitX=0.5;exitY=0;exitDx=0;exitDy=0;" parent="1" source="g1ZzgkmIgaxY1qbnCCBE-34" target="g1ZzgkmIgaxY1qbnCCBE-39" edge="1">
          <mxGeometry relative="1" as="geometry" />
        </mxCell>
        <mxCell id="g1ZzgkmIgaxY1qbnCCBE-34" value="Menbros" style="rounded=0;whiteSpace=wrap;html=1;fillColor=#dae8fc;strokeColor=#6c8ebf;" parent="1" vertex="1">
          <mxGeometry x="480" y="480" width="120" height="60" as="geometry" />
        </mxCell>
        <mxCell id="g1ZzgkmIgaxY1qbnCCBE-38" style="edgeStyle=orthogonalEdgeStyle;rounded=0;orthogonalLoop=1;jettySize=auto;html=1;exitX=1;exitY=0.5;exitDx=0;exitDy=0;" parent="1" source="g1ZzgkmIgaxY1qbnCCBE-35" target="g1ZzgkmIgaxY1qbnCCBE-34" edge="1">
          <mxGeometry relative="1" as="geometry" />
        </mxCell>
        <mxCell id="g1ZzgkmIgaxY1qbnCCBE-35" value="contém" style="rhombus;whiteSpace=wrap;html=1;fillColor=#f8cecc;strokeColor=#b85450;" parent="1" vertex="1">
          <mxGeometry x="260" y="560" width="120" height="80" as="geometry" />
        </mxCell>
        <mxCell id="g1ZzgkmIgaxY1qbnCCBE-39" value="id&lt;div&gt;id_grupo&lt;/div&gt;&lt;div&gt;id_usuario&lt;/div&gt;&lt;div&gt;cargo&lt;/div&gt;" style="ellipse;whiteSpace=wrap;html=1;fillColor=#fff2cc;strokeColor=#d6b656;" parent="1" vertex="1">
          <mxGeometry x="480" y="320" width="120" height="80" as="geometry" />
        </mxCell>
      </root>
    </mxGraphModel>
  </diagram>
</mxfile>
